PathFileType	3	(X/Y/Z)	D:\Jess\PFP\Labelled\PA11\20250805\SRRun01.trc
DataRate	CameraRate	NumFrames	NumMarkers	Units	OrigDataRate	OrigDataStartFrame	OrigNumFrames
250.0	250.0	5	33	mm	250.0	35625	2501
Frame#	Time	C7			T10			CLAV			LSHO			RSHO			LASIS			RASIS			LPSIS			RPSIS			LILCR			RILCR			LGTR			LTHI			LLTHI			LLEP			LPSH			LLSH			LDSH			LLMAL			LTOE			L5TH			LHEE			RGTR			RTHI			RLTHI			RLEP			RPSH			RLSH			RDSH			RLMAL			RTOE			R5TH			RHEE			
		X1	Y1	Z1	X2	Y2	Z2	X3	Y3	Z3	X4	Y4	Z4	X5	Y5	Z5	X6	Y6	Z6	X7	Y7	Z7	X8	Y8	Z8	X9	Y9	Z9	X10	Y10	Z10	X11	Y11	Z11	X12	Y12	Z12	X13	Y13	Z13	X14	Y14	Z14	X15	Y15	Z15	X16	Y16	Z16	X17	Y17	Z17	X18	Y18	Z18	X19	Y19	Z19	X20	Y20	Z20	X21	Y21	Z21	X22	Y22	Z22	X23	Y23	Z23	X24	Y24	Z24	X25	Y25	Z25	X26	Y26	Z26	X27	Y27	Z27	X28	Y28	Z28	X29	Y29	Z29	X30	Y30	Z30	X31	Y31	Z31	X32	Y32	Z32	X33	Y33	Z33	

626	142.496	1034.399402592878	1543.716809607451	-360.5326464718853	955.6742052833837	1326.816261618913	-377.1551257245844	1156.22189404286	1436.855530527006	-327.7146101971895	1141.587701732134	1525.951529338771	-473.1931310002536	1067.588395503239	1515.508630349265	-191.9004881038533	1137.348850631177	1052.681507804948	-454.1712812458649	1118.520798188485	1081.18217649342	-207.3290159260175	931.5931186118368	1110.571778618605	-370.5646113014845	931.7292383191366	1110.90042235577	-336.8694472966088	1094.143675300123	1125.209395395717	-503.4855940212328	1043.997245693944	1162.109269502189	-174.1512159205622	1040.54346730642	948.1482437271119	-544.9700926737637	1070.674162857222	750.8805797100456	-417.4446111915999	925.3553689360294	677.2551875407673	-486.7709115714679	862.7429596592887	565.0481178615763	-471.1513421255499	891.9195789582183	473.8664477996451	-404.2786295127672	750.477676818	374.5365738434452	-454.698392420198	759.4417636242251	243.2891519016316	-381.060758522639	653.5625455287204	184.0890908182788	-402.118895841129	758.7407138078161	58.22536009798021	-388.1384555501861	713.3523511297417	52.54343047418461	-430.8870090304918	587.5421373936693	200.0911358953562	-346.7953449309047	1033.396226207821	1000.540648052161	-123.6777478211033	1234.759328981962	856.7285407900928	-240.8203970562388	1190.754157310739	716.5320125975477	-180.9975537062765	1254.438224835669	584.8368742106109	-200.2338633344606	1291.582031474805	512.1033992830413	-262.5198786649494	1206.53404970739	370.5906802612233	-186.0407139901801	1253.179188219811	261.4291359059923	-243.5378946805867	1186.792141177362	154.6747407401173	-212.8364738005747	1337.56598805879	128.5562604375765	-207.7194368958748	1301.756956422739	94.40809900827297	-173.0202928431168	1122.434231851615	108.8213538634524	-269.5538122740682	
627	142.5	1034.687723618274	1544.91373569275	-360.4328014058885	956.4480546232061	1328.276598655814	-377.6000033527089	1156.394921293117	1438.743451437103	-326.9402118792097	1142.206353059762	1527.404244512345	-472.2548984205609	1067.219868097875	1516.994823922504	-191.889477960031	1139.054937803135	1054.743440520586	-453.1896626617519	1119.27973166805	1083.770123793566	-207.2397425906053	933.2994239507173	1113.180838880251	-370.4303464793222	933.6705642018532	1113.482438271438	-336.7064674697158	1096.077282583914	1126.993120927816	-502.6630165727915	1045.311864914366	1164.80086006096	-173.7691881561212	1041.617839571683	950.2543195550944	-544.6635736342598	1070.550597213773	752.3100211727668	-417.6846434429157	924.1306928890236	680.4809992531756	-487.3775226552345	860.5477213545557	568.6557359586398	-471.7670088031326	889.535145852493	476.788376691011	-405.2404658290168	747.2978852507188	378.6149869702662	-455.9243140774934	755.8967676393972	246.6145352274739	-383.0085124154087	649.677478012718	188.3330147850654	-403.9027712160006	750.9930774736595	58.79876891156594	-388.8994516565377	705.2379829427588	54.05155918057823	-431.3237263833947	584.4866700164716	206.843190223019	-348.6082870480868	1034.539497848554	1003.704660435101	-123.5203790572136	1234.914896304183	858.6129291573677	-240.7602151709224	1187.902460052864	716.85035393898	-180.976023489453	1252.147152258274	584.7392306477076	-200.0033323399638	1291.53461367979	512.7660470828907	-262.8999742239824	1210.788017310116	368.9263986897706	-186.4616064629794	1260.496724390994	261.440390240089	-244.5658806890027	1197.693954645897	152.5268633423009	-214.1418951359626	1349.26996558694	131.1631513335042	-210.4081850736827	1314.93127473676	95.46888752137573	-175.7205063702165	1134.383686876625	105.0067307664983	-270.5219568918353	
628	142.504	1034.980421661455	1546.000593781496	-360.2858306862254	957.1645863251396	1329.626600495207	-377.9011552847485	1156.575313226832	1440.474599464488	-326.1714548831559	1142.810250684355	1528.702902178224	-471.3206745230379	1066.917734557901	1518.365262038774	-191.8344636519686	1140.683464737767	1056.809776304552	-452.2873845914949	1120.051775062666	1086.167463814795	-207.2062520980778	934.9685294210523	1115.71140482863	-370.19144924856	935.5473307016488	1115.976351546243	-336.443780229768	1097.77014349025	1128.794092103457	-501.8604145343272	1046.676790849585	1167.283121673044	-173.349382363774	1042.682692811597	952.3540325896337	-544.3767741389629	1070.663424954282	753.6869666705561	-418.1483708851281	923.1781080659831	683.5343773257835	-487.9867648561276	858.8142021856997	571.9897631540551	-472.2921686354158	887.6291972866213	479.3897907950512	-406.1938790632742	744.5152091475479	382.4874087916368	-457.1370786203775	752.5470271867281	249.7572962142261	-384.9532011359128	645.9721066159451	192.5418948137152	-405.7834806749402	743.2958099105992	59.49243129112388	-389.7043337345884	697.1795442580236	55.69410500575555	-431.7920547432333	581.6983700559268	213.5582989461649	-350.548224261983	1035.71933098046	1006.698613066182	-123.3682676916972	1234.98391423835	860.1572899281515	-240.720060851533	1184.985812219339	717.0066576999574	-180.7635646399469	1249.795258361005	584.4262396278148	-199.6623592184814	1291.37090679853	513.234482666933	-263.1586965346009	1214.72499879864	367.3254948960532	-186.9183521083258	1267.348650879195	261.5348687464052	-245.6175064238247	1208.054888413309	150.6368351405958	-215.5271591679928	1360.2779624539	133.8830127616397	-213.1777926562444	1327.424009583701	96.71588661828702	-178.5156635537707	1145.792183166616	101.5349627515788	-271.5717967581026	
629	142.508	1035.277617037077	1546.975960918281	-360.0867963185278	957.8217566268802	1330.860844221352	-378.0592259895426	1156.763426245985	1442.046849552087	-325.4066763968126	1143.402818998051	1529.852674707258	-470.3917273073677	1066.676961130787	1519.612662252554	-191.7319841049375	1142.232187266296	1058.857466830923	-451.4641846473164	1120.831839740341	1088.359104985422	-207.2260315701717	936.5940616045506	1118.154245357705	-369.8487604518829	937.3442773126386	1118.375726749472	-336.0829751840938	1099.232017718703	1130.605563484451	-501.0839679285629	1048.082873112948	1169.541219926504	-172.889728376004	1043.740867789601	954.4365239775115	-544.107391796198	1071.014342285432	754.9989321594738	-418.8172887369086	922.5185002366625	686.3793748178986	-488.5816089394905	857.5566388163292	575.0142621322237	-472.7195065317699	886.1902738821055	481.6357110250998	-407.128589574098	742.1201524853496	386.1297163802103	-458.3280785997985	749.370573319621	252.7031439083796	-386.8763118561702	642.4295881165856	196.7051161852981	-407.752891709758	735.634134559624	60.31221864388004	-390.5480303332104	689.164725536589	57.47650442562198	-432.2892311120227	579.162433524142	220.2197038009833	-352.6073091630217	1036.932374662423	1009.512739536069	-123.2092460151199	1234.953534340836	861.3431670997948	-240.695060746653	1182.046592656176	717.0228452762224	-180.3712849751695	1247.414696603859	583.9249083465876	-199.2199824460783	1291.108108312721	513.5299096098445	-263.3035456344253	1218.332776238681	365.7956172335466	-187.4164174172994	1273.710437903357	261.7016213053786	-246.6962493940052	1217.817902219909	148.9909287268111	-216.9934157888943	1370.544918299319	136.6783052574389	-216.0056524877474	1339.175906632616	98.11363082649535	-181.3869530651397	1156.597554916132	98.39166127284071	-272.7149889104859	
630	142.512	1035.580065698323	1547.839261149864	-359.8316153792324	958.4181698349679	1331.975395199479	-378.0768824600865	1156.959220294823	1443.458383942878	-324.6445114449095	1143.987372905975	1530.858799578139	-469.4693529137444	1066.492199047033	1520.729879136886	-191.5793439121605	1143.6997304906	1060.863627239373	-450.7180385686399	1121.614434261504	1090.332529596333	-207.294322484149	938.1695077101615	1120.499596483101	-369.4045119133148	939.0478232585406	1120.673245903401	-335.6269558886443	1100.475484728397	1132.417728585101	-500.3389440785136	1049.52020049508	1171.563303874607	-172.3886749812775	1044.795104786839	956.4909710007213	-543.8530898776019	1071.603510877364	756.2339945948565	-419.669085821726	922.1715140791247	688.9809897061334	-489.1463734683713	856.7854650221318	577.6963959018419	-473.0452897386525	885.2034887210258	483.4964382669478	-408.0354670104337	740.1016100047864	389.5219484765897	-459.4909743045587	746.3473197988302	255.4427045206049	-388.7620701149031	639.0350228578156	200.8146136392434	-409.8023185684349	727.995287459703	61.26364176087864	-391.4256689364644	681.1841548159241	59.40414524170086	-432.8135898859057	576.8645838455869	226.8134554988422	-354.7763982546667	1038.174898087065	1012.138455293741	-123.0307703133464	1234.812649892706	862.1559969823513	-240.6804631995448	1179.125434505891	716.9183740569628	-179.8154428896046	1245.035205837478	583.2621120662604	-198.6874134457438	1290.760848150266	513.6729102219697	-263.3439846546894	1221.601857877878	364.3405221521829	-187.9600086211821	1279.560576144375	261.9258058732443	-247.8047273098574	1226.929991576062	147.5698313707346	-218.540227805218	1380.031154788529	139.5065672265585	-218.8672931483971	1350.132318330177	99.62057200203682	-184.3139067115865	1166.741630658037	95.557609224155	-273.9620366570158	
